<?xml version="1.0" encoding="UTF-8" standalone="no"?>
<!DOCTYPE svg PUBLIC "-//W3C//DTD SVG 1.1//EN"
 "http://www.w3.org/Graphics/SVG/1.1/DTD/svg11.dtd">
<!-- Generated by graphviz version 13.1.2 (20250808.2320)
 -->
<!-- Title: AgencyReasoningGraph Pages: 1 -->
<svg width="1210pt" height="239pt"
 viewBox="0.00 0.00 1210.00 239.00" xmlns="http://www.w3.org/2000/svg" xmlns:xlink="http://www.w3.org/1999/xlink">
<g id="graph0" class="graph" transform="scale(1 1) rotate(0) translate(4 235)">
<title>AgencyReasoningGraph</title>
<polygon fill="white" stroke="none" points="-4,4 -4,-235 1206.42,-235 1206.42,4 -4,4"/>
<text xml:space="preserve" text-anchor="middle" x="601.21" y="-209.9" font-family="Arial" font-size="18.00">CFTC&#45;2026&#45;0893&#45;0001: Agency Reasoning Graph</text>
<g id="clust1" class="cluster">
<title>cluster_agency_conclusion</title>
<path fill="none" stroke="#999999" d="M1047.54,-64C1047.54,-64 1185.04,-64 1185.04,-64 1191.04,-64 1197.04,-70 1197.04,-76 1197.04,-76 1197.04,-141 1197.04,-141 1197.04,-147 1191.04,-153 1185.04,-153 1185.04,-153 1047.54,-153 1047.54,-153 1041.54,-153 1035.54,-147 1035.54,-141 1035.54,-141 1035.54,-76 1035.54,-76 1035.54,-70 1041.54,-64 1047.54,-64"/>
<text xml:space="preserve" text-anchor="middle" x="1116.29" y="-131.9" font-family="Arial" font-size="18.00">agency conclusion</text>
</g>
<g id="clust2" class="cluster">
<title>cluster_alternatives_considered</title>
<path fill="none" stroke="#999999" d="M747.54,-105C747.54,-105 921.79,-105 921.79,-105 927.79,-105 933.79,-111 933.79,-117 933.79,-117 933.79,-182 933.79,-182 933.79,-188 927.79,-194 921.79,-194 921.79,-194 747.54,-194 747.54,-194 741.54,-194 735.54,-188 735.54,-182 735.54,-182 735.54,-117 735.54,-117 735.54,-111 741.54,-105 747.54,-105"/>
<text xml:space="preserve" text-anchor="middle" x="834.66" y="-172.9" font-family="Arial" font-size="18.00">alternatives considered</text>
</g>
<g id="clust3" class="cluster">
<title>cluster_analytical_method</title>
<path fill="none" stroke="#999999" d="M759.28,-8C759.28,-8 909.05,-8 909.05,-8 915.05,-8 921.05,-14 921.05,-20 921.05,-20 921.05,-85 921.05,-85 921.05,-91 915.05,-97 909.05,-97 909.05,-97 759.28,-97 759.28,-97 753.28,-97 747.28,-91 747.28,-85 747.28,-85 747.28,-20 747.28,-20 747.28,-14 753.28,-8 759.28,-8"/>
<text xml:space="preserve" text-anchor="middle" x="834.16" y="-75.9" font-family="Arial" font-size="18.00">analytical method</text>
</g>
<g id="clust4" class="cluster">
<title>cluster_data_used</title>
<path fill="none" stroke="#999999" d="M505.77,-8C505.77,-8 668.29,-8 668.29,-8 674.29,-8 680.29,-14 680.29,-20 680.29,-20 680.29,-85 680.29,-85 680.29,-91 674.29,-97 668.29,-97 668.29,-97 505.77,-97 505.77,-97 499.77,-97 493.77,-91 493.77,-85 493.77,-85 493.77,-20 493.77,-20 493.77,-14 499.77,-8 505.77,-8"/>
<text xml:space="preserve" text-anchor="middle" x="587.03" y="-75.9" font-family="Arial" font-size="18.00">data used</text>
</g>
<g id="clust5" class="cluster">
<title>cluster_problem_definition</title>
<path fill="none" stroke="#999999" d="M240.75,-8C240.75,-8 400.27,-8 400.27,-8 406.27,-8 412.27,-14 412.27,-20 412.27,-20 412.27,-85 412.27,-85 412.27,-91 406.27,-97 400.27,-97 400.27,-97 240.75,-97 240.75,-97 234.75,-97 228.75,-91 228.75,-85 228.75,-85 228.75,-20 228.75,-20 228.75,-14 234.75,-8 240.75,-8"/>
<text xml:space="preserve" text-anchor="middle" x="320.51" y="-75.9" font-family="Arial" font-size="18.00">problem definition</text>
</g>
<g id="clust6" class="cluster">
<title>cluster_regulatory_objective</title>
<path fill="none" stroke="#999999" d="M12,-8C12,-8 157.75,-8 157.75,-8 163.75,-8 169.75,-14 169.75,-20 169.75,-20 169.75,-85 169.75,-85 169.75,-91 163.75,-97 157.75,-97 157.75,-97 12,-97 12,-97 6,-97 0,-91 0,-85 0,-85 0,-20 0,-20 0,-14 6,-8 12,-8"/>
<text xml:space="preserve" text-anchor="middle" x="84.88" y="-75.9" font-family="Arial" font-size="18.00">regulatory objective</text>
</g>
<!-- conclusion -->
<g id="node1" class="node">
<title>conclusion</title>
<path fill="#eeeeee" stroke="black" d="M1174.42,-115.6C1174.42,-115.6 1057.15,-115.6 1057.15,-115.6 1051.15,-115.6 1045.15,-109.6 1045.15,-103.6 1045.15,-103.6 1045.15,-84.4 1045.15,-84.4 1045.15,-78.4 1051.15,-72.4 1057.15,-72.4 1057.15,-72.4 1174.42,-72.4 1174.42,-72.4 1180.42,-72.4 1186.42,-78.4 1186.42,-84.4 1186.42,-84.4 1186.42,-103.6 1186.42,-103.6 1186.42,-109.6 1180.42,-115.6 1174.42,-115.6"/>
<text xml:space="preserve" text-anchor="middle" x="1115.79" y="-102.5" font-family="Arial" font-size="10.00">Conclusion</text>
<text xml:space="preserve" text-anchor="middle" x="1115.79" y="-90.5" font-family="Arial" font-size="10.00">Adopt the specified CFTC–59</text>
<text xml:space="preserve" text-anchor="middle" x="1115.79" y="-78.5" font-family="Arial" font-size="10.00">exemptions</text>
</g>
<!-- alternatives -->
<g id="node2" class="node">
<title>alternatives</title>
<path fill="#fce5cd" stroke="black" d="M887.55,-156.6C887.55,-156.6 780.78,-156.6 780.78,-156.6 774.78,-156.6 768.78,-150.6 768.78,-144.6 768.78,-144.6 768.78,-125.4 768.78,-125.4 768.78,-119.4 774.78,-113.4 780.78,-113.4 780.78,-113.4 887.55,-113.4 887.55,-113.4 893.55,-113.4 899.55,-119.4 899.55,-125.4 899.55,-125.4 899.55,-144.6 899.55,-144.6 899.55,-150.6 893.55,-156.6 887.55,-156.6"/>
<text xml:space="preserve" text-anchor="middle" x="834.16" y="-143.5" font-family="Arial" font-size="10.00">Alternative</text>
<text xml:space="preserve" text-anchor="middle" x="834.16" y="-131.5" font-family="Arial" font-size="10.00">Narrower or delayed review</text>
<text xml:space="preserve" text-anchor="middle" x="834.16" y="-119.5" font-family="Arial" font-size="10.00">alternatives</text>
</g>
<!-- alternatives&#45;&gt;conclusion -->
<g id="edge5" class="edge">
<title>alternatives&#45;&gt;conclusion</title>
<path fill="none" stroke="#555555" d="M900.02,-125.49C940.79,-119.51 993.64,-111.76 1036.71,-105.45"/>
<polygon fill="#555555" stroke="#555555" points="1036.84,-107.91 1043.41,-104.47 1036.13,-103.06 1036.84,-107.91"/>
<text xml:space="preserve" text-anchor="middle" x="984.66" y="-120.12" font-family="Arial" font-size="9.00">missing comparison</text>
</g>
<!-- method -->
<g id="node3" class="node">
<title>method</title>
<path fill="#d9d2e9" stroke="black" d="M901.05,-59.6C901.05,-59.6 767.28,-59.6 767.28,-59.6 761.28,-59.6 755.28,-53.6 755.28,-47.6 755.28,-47.6 755.28,-28.4 755.28,-28.4 755.28,-22.4 761.28,-16.4 767.28,-16.4 767.28,-16.4 901.05,-16.4 901.05,-16.4 907.05,-16.4 913.05,-22.4 913.05,-28.4 913.05,-28.4 913.05,-47.6 913.05,-47.6 913.05,-53.6 907.05,-59.6 901.05,-59.6"/>
<text xml:space="preserve" text-anchor="middle" x="834.16" y="-46.5" font-family="Arial" font-size="10.00">Method</text>
<text xml:space="preserve" text-anchor="middle" x="834.16" y="-34.5" font-family="Arial" font-size="10.00">Categorical exemption from listed</text>
<text xml:space="preserve" text-anchor="middle" x="834.16" y="-22.5" font-family="Arial" font-size="10.00">provisions</text>
</g>
<!-- method&#45;&gt;conclusion -->
<g id="edge4" class="edge">
<title>method&#45;&gt;conclusion</title>
<path fill="none" stroke="#555555" d="M913.43,-53.67C951.89,-61.38 998.12,-70.63 1036.58,-78.34"/>
<polygon fill="#555555" stroke="#555555" points="1035.83,-80.69 1043.18,-79.66 1036.79,-75.88 1035.83,-80.69"/>
<text xml:space="preserve" text-anchor="middle" x="984.66" y="-77.84" font-family="Arial" font-size="9.00">implements</text>
</g>
<!-- evidence -->
<g id="node4" class="node">
<title>evidence</title>
<path fill="#eeeeee" stroke="black" d="M660.29,-59.6C660.29,-59.6 513.77,-59.6 513.77,-59.6 507.77,-59.6 501.77,-53.6 501.77,-47.6 501.77,-47.6 501.77,-28.4 501.77,-28.4 501.77,-22.4 507.77,-16.4 513.77,-16.4 513.77,-16.4 660.29,-16.4 660.29,-16.4 666.29,-16.4 672.29,-22.4 672.29,-28.4 672.29,-28.4 672.29,-47.6 672.29,-47.6 672.29,-53.6 666.29,-59.6 660.29,-59.6"/>
<text xml:space="preserve" text-anchor="middle" x="587.03" y="-46.5" font-family="Arial" font-size="10.00">Evidence</text>
<text xml:space="preserve" text-anchor="middle" x="587.03" y="-34.5" font-family="Arial" font-size="10.00">CFTC–59 contains investigative and</text>
<text xml:space="preserve" text-anchor="middle" x="587.03" y="-22.5" font-family="Arial" font-size="10.00">source information</text>
</g>
<!-- evidence&#45;&gt;method -->
<g id="edge3" class="edge">
<title>evidence&#45;&gt;method</title>
<path fill="none" stroke="#555555" d="M672.73,-38C696.63,-38 722.65,-38 746.64,-38"/>
<polygon fill="#555555" stroke="#555555" points="746.53,-40.45 753.53,-38 746.53,-35.55 746.53,-40.45"/>
<text xml:space="preserve" text-anchor="middle" x="707.91" y="-39.95" font-family="Arial" font-size="9.00">supports</text>
</g>
<!-- problem -->
<g id="node5" class="node">
<title>problem</title>
<path fill="#eeeeee" stroke="black" d="M392.27,-59.6C392.27,-59.6 248.75,-59.6 248.75,-59.6 242.75,-59.6 236.75,-53.6 236.75,-47.6 236.75,-47.6 236.75,-28.4 236.75,-28.4 236.75,-22.4 242.75,-16.4 248.75,-16.4 248.75,-16.4 392.27,-16.4 392.27,-16.4 398.27,-16.4 404.27,-22.4 404.27,-28.4 404.27,-28.4 404.27,-47.6 404.27,-47.6 404.27,-53.6 398.27,-59.6 392.27,-59.6"/>
<text xml:space="preserve" text-anchor="middle" x="320.51" y="-46.5" font-family="Arial" font-size="10.00">Problem</text>
<text xml:space="preserve" text-anchor="middle" x="320.51" y="-34.5" font-family="Arial" font-size="10.00">Access could reveal or compromise</text>
<text xml:space="preserve" text-anchor="middle" x="320.51" y="-22.5" font-family="Arial" font-size="10.00">investigations</text>
</g>
<!-- problem&#45;&gt;evidence -->
<g id="edge2" class="edge">
<title>problem&#45;&gt;evidence</title>
<path fill="none" stroke="#555555" d="M404.48,-38C432.61,-38 464.22,-38 493.07,-38"/>
<polygon fill="#555555" stroke="#555555" points="493.02,-40.45 500.02,-38 493.02,-35.55 493.02,-40.45"/>
<text xml:space="preserve" text-anchor="middle" x="453.02" y="-39.95" font-family="Arial" font-size="9.00">is described by</text>
</g>
<!-- objective -->
<g id="node6" class="node">
<title>objective</title>
<path fill="#eeeeee" stroke="black" d="M136.26,-59.6C136.26,-59.6 32.49,-59.6 32.49,-59.6 26.49,-59.6 20.49,-53.6 20.49,-47.6 20.49,-47.6 20.49,-28.4 20.49,-28.4 20.49,-22.4 26.49,-16.4 32.49,-16.4 32.49,-16.4 136.26,-16.4 136.26,-16.4 142.26,-16.4 148.26,-22.4 148.26,-28.4 148.26,-28.4 148.26,-47.6 148.26,-47.6 148.26,-53.6 142.26,-59.6 136.26,-59.6"/>
<text xml:space="preserve" text-anchor="middle" x="84.38" y="-46.5" font-family="Arial" font-size="10.00">Objective</text>
<text xml:space="preserve" text-anchor="middle" x="84.38" y="-34.5" font-family="Arial" font-size="10.00">Protect insider&#45;risk</text>
<text xml:space="preserve" text-anchor="middle" x="84.38" y="-22.5" font-family="Arial" font-size="10.00">investigations and sources</text>
</g>
<!-- objective&#45;&gt;problem -->
<g id="edge1" class="edge">
<title>objective&#45;&gt;problem</title>
<path fill="none" stroke="#555555" d="M148.74,-38C173.16,-38 201.57,-38 228.12,-38"/>
<polygon fill="#555555" stroke="#555555" points="227.78,-40.45 234.78,-38 227.78,-35.55 227.78,-40.45"/>
<text xml:space="preserve" text-anchor="middle" x="199.25" y="-39.95" font-family="Arial" font-size="9.00">motivates</text>
</g>
</g>
</svg>
