<?xml version="1.0" encoding="UTF-8" standalone="no"?>
<!DOCTYPE svg PUBLIC "-//W3C//DTD SVG 1.1//EN"
 "http://www.w3.org/Graphics/SVG/1.1/DTD/svg11.dtd">
<!-- Generated by graphviz version 13.1.2 (20250808.2320)
 -->
<!-- Title: AgencyReasoningGraph Pages: 1 -->
<svg width="1466pt" height="200pt"
 viewBox="0.00 0.00 1466.00 200.00" xmlns="http://www.w3.org/2000/svg" xmlns:xlink="http://www.w3.org/1999/xlink">
<g id="graph0" class="graph" transform="scale(1 1) rotate(0) translate(4 196)">
<title>AgencyReasoningGraph</title>
<polygon fill="white" stroke="none" points="-4,4 -4,-196 1462.35,-196 1462.35,4 -4,4"/>
<text xml:space="preserve" text-anchor="middle" x="729.17" y="-170.9" font-family="Arial" font-size="18.00">EPA&#45;R03&#45;OAR&#45;2026&#45;4225&#45;0001: Agency Reasoning Graph</text>
<g id="clust1" class="cluster">
<title>cluster_conclusion</title>
<path fill="none" stroke="#999999" d="M1308.08,-66C1308.08,-66 1438.35,-66 1438.35,-66 1444.35,-66 1450.35,-72 1450.35,-78 1450.35,-78 1450.35,-143 1450.35,-143 1450.35,-149 1444.35,-155 1438.35,-155 1438.35,-155 1308.08,-155 1308.08,-155 1302.08,-155 1296.08,-149 1296.08,-143 1296.08,-143 1296.08,-78 1296.08,-78 1296.08,-72 1302.08,-66 1308.08,-66"/>
<text xml:space="preserve" text-anchor="middle" x="1373.21" y="-133.9" font-family="Arial" font-size="18.00">conclusion</text>
</g>
<g id="clust2" class="cluster">
<title>cluster_evidentiary_support</title>
<path fill="none" stroke="#999999" d="M523.04,-49C523.04,-49 669.54,-49 669.54,-49 675.54,-49 681.54,-55 681.54,-61 681.54,-61 681.54,-126 681.54,-126 681.54,-132 675.54,-138 669.54,-138 669.54,-138 523.04,-138 523.04,-138 517.04,-138 511.04,-132 511.04,-126 511.04,-126 511.04,-61 511.04,-61 511.04,-55 517.04,-49 523.04,-49"/>
<text xml:space="preserve" text-anchor="middle" x="596.29" y="-116.9" font-family="Arial" font-size="18.00">evidentiary_support</text>
</g>
<g id="clust3" class="cluster">
<title>cluster_legal_application</title>
<path fill="none" stroke="#999999" d="M771.29,-49C771.29,-49 920.31,-49 920.31,-49 926.31,-49 932.31,-55 932.31,-61 932.31,-61 932.31,-126 932.31,-126 932.31,-132 926.31,-138 920.31,-138 920.31,-138 771.29,-138 771.29,-138 765.29,-138 759.29,-132 759.29,-126 759.29,-126 759.29,-61 759.29,-61 759.29,-55 765.29,-49 771.29,-49"/>
<text xml:space="preserve" text-anchor="middle" x="845.8" y="-116.9" font-family="Arial" font-size="18.00">legal_application</text>
</g>
<g id="clust4" class="cluster">
<title>cluster_legal_authority</title>
<path fill="none" stroke="#999999" d="M20,-49C20,-49 165.27,-49 165.27,-49 171.27,-49 177.27,-55 177.27,-61 177.27,-61 177.27,-126 177.27,-126 177.27,-132 171.27,-138 165.27,-138 165.27,-138 20,-138 20,-138 14,-138 8,-132 8,-126 8,-126 8,-61 8,-61 8,-55 14,-49 20,-49"/>
<text xml:space="preserve" text-anchor="middle" x="92.63" y="-116.9" font-family="Arial" font-size="18.00">legal_authority</text>
</g>
<g id="clust5" class="cluster">
<title>cluster_safeguard</title>
<path fill="none" stroke="#999999" d="M1043.06,-8C1043.06,-8 1185.33,-8 1185.33,-8 1191.33,-8 1197.33,-14 1197.33,-20 1197.33,-20 1197.33,-85 1197.33,-85 1197.33,-91 1191.33,-97 1185.33,-97 1185.33,-97 1043.06,-97 1043.06,-97 1037.06,-97 1031.06,-91 1031.06,-85 1031.06,-85 1031.06,-20 1031.06,-20 1031.06,-14 1037.06,-8 1043.06,-8"/>
<text xml:space="preserve" text-anchor="middle" x="1114.19" y="-75.9" font-family="Arial" font-size="18.00">safeguard</text>
</g>
<g id="clust6" class="cluster">
<title>cluster_scope_definition</title>
<path fill="none" stroke="#999999" d="M266.27,-49C266.27,-49 416.04,-49 416.04,-49 422.04,-49 428.04,-55 428.04,-61 428.04,-61 428.04,-126 428.04,-126 428.04,-132 422.04,-138 416.04,-138 416.04,-138 266.27,-138 266.27,-138 260.27,-138 254.27,-132 254.27,-126 254.27,-126 254.27,-61 254.27,-61 254.27,-55 260.27,-49 266.27,-49"/>
<text xml:space="preserve" text-anchor="middle" x="341.15" y="-116.9" font-family="Arial" font-size="18.00">scope_definition</text>
</g>
<!-- conclusion -->
<g id="node1" class="node">
<title>conclusion</title>
<path fill="#fff2cc" stroke="black" d="M1430.35,-117.6C1430.35,-117.6 1316.08,-117.6 1316.08,-117.6 1310.08,-117.6 1304.08,-111.6 1304.08,-105.6 1304.08,-105.6 1304.08,-86.4 1304.08,-86.4 1304.08,-80.4 1310.08,-74.4 1316.08,-74.4 1316.08,-74.4 1430.35,-74.4 1430.35,-74.4 1436.35,-74.4 1442.35,-80.4 1442.35,-86.4 1442.35,-86.4 1442.35,-105.6 1442.35,-105.6 1442.35,-111.6 1436.35,-117.6 1430.35,-117.6"/>
<text xml:space="preserve" text-anchor="middle" x="1373.21" y="-104.5" font-family="Arial" font-size="10.00">Agency Claim</text>
<text xml:space="preserve" text-anchor="middle" x="1373.21" y="-92.5" font-family="Arial" font-size="10.00">EPA proposes to approve the</text>
<text xml:space="preserve" text-anchor="middle" x="1373.21" y="-80.5" font-family="Arial" font-size="10.00">negative declaration</text>
</g>
<!-- state_screening -->
<g id="node2" class="node">
<title>state_screening</title>
<path fill="#fff2cc" stroke="black" d="M659.3,-100.6C659.3,-100.6 532.28,-100.6 532.28,-100.6 526.28,-100.6 520.28,-94.6 520.28,-88.6 520.28,-88.6 520.28,-69.4 520.28,-69.4 520.28,-63.4 526.28,-57.4 532.28,-57.4 532.28,-57.4 659.3,-57.4 659.3,-57.4 665.3,-57.4 671.3,-63.4 671.3,-69.4 671.3,-69.4 671.3,-88.6 671.3,-88.6 671.3,-94.6 665.3,-100.6 659.3,-100.6"/>
<text xml:space="preserve" text-anchor="middle" x="595.79" y="-87.5" font-family="Arial" font-size="10.00">Agency Claim</text>
<text xml:space="preserve" text-anchor="middle" x="595.79" y="-75.5" font-family="Arial" font-size="10.00">MDE&#39;s review found no covered</text>
<text xml:space="preserve" text-anchor="middle" x="595.79" y="-63.5" font-family="Arial" font-size="10.00">existing source in Maryland</text>
</g>
<!-- negative_declaration -->
<g id="node3" class="node">
<title>negative_declaration</title>
<path fill="#fff2cc" stroke="black" d="M912.31,-100.6C912.31,-100.6 779.29,-100.6 779.29,-100.6 773.29,-100.6 767.29,-94.6 767.29,-88.6 767.29,-88.6 767.29,-69.4 767.29,-69.4 767.29,-63.4 773.29,-57.4 779.29,-57.4 779.29,-57.4 912.31,-57.4 912.31,-57.4 918.31,-57.4 924.31,-63.4 924.31,-69.4 924.31,-69.4 924.31,-88.6 924.31,-88.6 924.31,-94.6 918.31,-100.6 912.31,-100.6"/>
<text xml:space="preserve" text-anchor="middle" x="845.8" y="-87.5" font-family="Arial" font-size="10.00">Agency Claim</text>
<text xml:space="preserve" text-anchor="middle" x="845.8" y="-75.5" font-family="Arial" font-size="10.00">The declaration can substitute for</text>
<text xml:space="preserve" text-anchor="middle" x="845.8" y="-63.5" font-family="Arial" font-size="10.00">a Maryland state plan</text>
</g>
<!-- state_screening&#45;&gt;negative_declaration -->
<g id="edge3" class="edge">
<title>state_screening&#45;&gt;negative_declaration</title>
<path fill="none" stroke="#555555" d="M671.54,-79C699.06,-79 730.44,-79 758.87,-79"/>
<polygon fill="#555555" stroke="#555555" points="758.68,-81.45 765.68,-79 758.68,-76.55 758.68,-81.45"/>
<text xml:space="preserve" text-anchor="middle" x="720.41" y="-91.45" font-family="Arial" font-size="9.00">supports legal</text>
<text xml:space="preserve" text-anchor="middle" x="720.41" y="-80.95" font-family="Arial" font-size="9.00">application</text>
</g>
<!-- negative_declaration&#45;&gt;conclusion -->
<g id="edge5" class="edge">
<title>negative_declaration&#45;&gt;conclusion</title>
<path fill="none" stroke="#555555" d="M924.62,-90.37C957.4,-94.62 996.01,-98.91 1031.06,-101 1104.83,-105.39 1123.44,-102.06 1197.33,-101 1229.39,-100.54 1264.76,-99.61 1295.24,-98.68"/>
<polygon fill="#555555" stroke="#555555" points="1295.27,-101.13 1302.19,-98.46 1295.12,-96.23 1295.27,-101.13"/>
<text xml:space="preserve" text-anchor="middle" x="1114.19" y="-115.66" font-family="Arial" font-size="9.00">supports proposed</text>
<text xml:space="preserve" text-anchor="middle" x="1114.19" y="-105.16" font-family="Arial" font-size="9.00">approval</text>
</g>
<!-- future_source_safeguard -->
<g id="node5" class="node">
<title>future_source_safeguard</title>
<path fill="#fff2cc" stroke="black" d="M1177.33,-59.6C1177.33,-59.6 1051.06,-59.6 1051.06,-59.6 1045.06,-59.6 1039.06,-53.6 1039.06,-47.6 1039.06,-47.6 1039.06,-28.4 1039.06,-28.4 1039.06,-22.4 1045.06,-16.4 1051.06,-16.4 1051.06,-16.4 1177.33,-16.4 1177.33,-16.4 1183.33,-16.4 1189.33,-22.4 1189.33,-28.4 1189.33,-28.4 1189.33,-47.6 1189.33,-47.6 1189.33,-53.6 1183.33,-59.6 1177.33,-59.6"/>
<text xml:space="preserve" text-anchor="middle" x="1114.19" y="-46.5" font-family="Arial" font-size="10.00">Agency Claim</text>
<text xml:space="preserve" text-anchor="middle" x="1114.19" y="-34.5" font-family="Arial" font-size="10.00">Future or borderline sources will</text>
<text xml:space="preserve" text-anchor="middle" x="1114.19" y="-22.5" font-family="Arial" font-size="10.00">be referred to EPA</text>
</g>
<!-- negative_declaration&#45;&gt;future_source_safeguard -->
<g id="edge4" class="edge">
<title>negative_declaration&#45;&gt;future_source_safeguard</title>
<path fill="none" stroke="#555555" d="M924.57,-67.03C957.98,-61.89 997.05,-55.87 1030.95,-50.66"/>
<polygon fill="#555555" stroke="#555555" points="1030.95,-53.14 1037.5,-49.65 1030.21,-48.29 1030.95,-53.14"/>
<text xml:space="preserve" text-anchor="middle" x="981.68" y="-75.83" font-family="Arial" font-size="9.00">requires continuing</text>
<text xml:space="preserve" text-anchor="middle" x="981.68" y="-65.33" font-family="Arial" font-size="9.00">coverage</text>
</g>
<!-- authority -->
<g id="node4" class="node">
<title>authority</title>
<path fill="#fff2cc" stroke="black" d="M157.27,-100.6C157.27,-100.6 28,-100.6 28,-100.6 22,-100.6 16,-94.6 16,-88.6 16,-88.6 16,-69.4 16,-69.4 16,-63.4 22,-57.4 28,-57.4 28,-57.4 157.27,-57.4 157.27,-57.4 163.27,-57.4 169.27,-63.4 169.27,-69.4 169.27,-69.4 169.27,-88.6 169.27,-88.6 169.27,-94.6 163.27,-100.6 157.27,-100.6"/>
<text xml:space="preserve" text-anchor="middle" x="92.63" y="-87.5" font-family="Arial" font-size="10.00">Agency Claim</text>
<text xml:space="preserve" text-anchor="middle" x="92.63" y="-75.5" font-family="Arial" font-size="10.00">CAA sections 111(d) and 129</text>
<text xml:space="preserve" text-anchor="middle" x="92.63" y="-63.5" font-family="Arial" font-size="10.00">provide the governing framework</text>
</g>
<!-- covered_category -->
<g id="node6" class="node">
<title>covered_category</title>
<path fill="#fff2cc" stroke="black" d="M408.04,-100.6C408.04,-100.6 274.27,-100.6 274.27,-100.6 268.27,-100.6 262.27,-94.6 262.27,-88.6 262.27,-88.6 262.27,-69.4 262.27,-69.4 262.27,-63.4 268.27,-57.4 274.27,-57.4 274.27,-57.4 408.04,-57.4 408.04,-57.4 414.04,-57.4 420.04,-63.4 420.04,-69.4 420.04,-69.4 420.04,-88.6 420.04,-88.6 420.04,-94.6 414.04,-100.6 408.04,-100.6"/>
<text xml:space="preserve" text-anchor="middle" x="341.15" y="-87.5" font-family="Arial" font-size="10.00">Agency Claim</text>
<text xml:space="preserve" text-anchor="middle" x="341.15" y="-75.5" font-family="Arial" font-size="10.00">The rule applies only to existing</text>
<text xml:space="preserve" text-anchor="middle" x="341.15" y="-63.5" font-family="Arial" font-size="10.00">OSWI within the federal definition</text>
</g>
<!-- authority&#45;&gt;covered_category -->
<g id="edge1" class="edge">
<title>authority&#45;&gt;covered_category</title>
<path fill="none" stroke="#555555" d="M169.61,-79C196.15,-79 226.14,-79 253.48,-79"/>
<polygon fill="#555555" stroke="#555555" points="253.36,-81.45 260.36,-79 253.36,-76.55 253.36,-81.45"/>
<text xml:space="preserve" text-anchor="middle" x="215.77" y="-80.95" font-family="Arial" font-size="9.00">defines scope</text>
</g>
<!-- future_source_safeguard&#45;&gt;conclusion -->
<g id="edge6" class="edge">
<title>future_source_safeguard&#45;&gt;conclusion</title>
<path fill="none" stroke="#555555" d="M1189.54,-54.78C1222.89,-62.3 1262.2,-71.17 1295.79,-78.75"/>
<polygon fill="#555555" stroke="#555555" points="1294.91,-81.07 1302.28,-80.22 1295.99,-76.29 1294.91,-81.07"/>
<text xml:space="preserve" text-anchor="middle" x="1246.7" y="-77.53" font-family="Arial" font-size="9.00">limits consequence</text>
</g>
<!-- covered_category&#45;&gt;state_screening -->
<g id="edge2" class="edge">
<title>covered_category&#45;&gt;state_screening</title>
<path fill="none" stroke="#555555" d="M420.36,-79C449.37,-79 482.36,-79 511.78,-79"/>
<polygon fill="#555555" stroke="#555555" points="511.47,-81.45 518.47,-79 511.47,-76.55 511.47,-81.45"/>
<text xml:space="preserve" text-anchor="middle" x="469.54" y="-91.45" font-family="Arial" font-size="9.00">requires factual</text>
<text xml:space="preserve" text-anchor="middle" x="469.54" y="-80.95" font-family="Arial" font-size="9.00">screening</text>
</g>
</g>
</svg>
