<?xml version="1.0" encoding="UTF-8" standalone="no"?>
<!DOCTYPE svg PUBLIC "-//W3C//DTD SVG 1.1//EN"
 "http://www.w3.org/Graphics/SVG/1.1/DTD/svg11.dtd">
<!-- Generated by graphviz version 13.1.2 (20250808.2320)
 -->
<!-- Title: AgencyReasoningGraph Pages: 1 -->
<svg width="895pt" height="196pt"
 viewBox="0.00 0.00 895.00 196.00" xmlns="http://www.w3.org/2000/svg" xmlns:xlink="http://www.w3.org/1999/xlink">
<g id="graph0" class="graph" transform="scale(1 1) rotate(0) translate(4 192)">
<title>AgencyReasoningGraph</title>
<polygon fill="white" stroke="none" points="-4,4 -4,-192 890.58,-192 890.58,4 -4,4"/>
<text xml:space="preserve" text-anchor="middle" x="443.29" y="-166.9" font-family="Arial" font-size="18.00">EPA&#45;HQ&#45;OPP&#45;2026&#45;4423&#45;0001: Agency Reasoning Graph</text>
<g id="clust1" class="cluster">
<title>cluster_analysis</title>
<path fill="none" stroke="#999999" d="M495.29,-35C495.29,-35 635.31,-35 635.31,-35 641.31,-35 647.31,-41 647.31,-47 647.31,-47 647.31,-112 647.31,-112 647.31,-118 641.31,-124 635.31,-124 635.31,-124 495.29,-124 495.29,-124 489.29,-124 483.29,-118 483.29,-112 483.29,-112 483.29,-47 483.29,-47 483.29,-41 489.29,-35 495.29,-35"/>
<text xml:space="preserve" text-anchor="middle" x="565.3" y="-102.9" font-family="Arial" font-size="18.00">analysis</text>
</g>
<g id="clust2" class="cluster">
<title>cluster_evidence</title>
<path fill="none" stroke="#999999" d="M255.02,-8C255.02,-8 381.54,-8 381.54,-8 387.54,-8 393.54,-14 393.54,-20 393.54,-20 393.54,-139 393.54,-139 393.54,-145 387.54,-151 381.54,-151 381.54,-151 255.02,-151 255.02,-151 249.02,-151 243.02,-145 243.02,-139 243.02,-139 243.02,-20 243.02,-20 243.02,-14 249.02,-8 255.02,-8"/>
<text xml:space="preserve" text-anchor="middle" x="318.28" y="-129.9" font-family="Arial" font-size="18.00">evidence</text>
</g>
<g id="clust3" class="cluster">
<title>cluster_outcome</title>
<path fill="none" stroke="#999999" d="M740.81,-35C740.81,-35 866.58,-35 866.58,-35 872.58,-35 878.58,-41 878.58,-47 878.58,-47 878.58,-112 878.58,-112 878.58,-118 872.58,-124 866.58,-124 866.58,-124 740.81,-124 740.81,-124 734.81,-124 728.81,-118 728.81,-112 728.81,-112 728.81,-47 728.81,-47 728.81,-41 734.81,-35 740.81,-35"/>
<text xml:space="preserve" text-anchor="middle" x="803.7" y="-102.9" font-family="Arial" font-size="18.00">outcome</text>
</g>
<g id="clust4" class="cluster">
<title>cluster_premise</title>
<path fill="none" stroke="#999999" d="M20,-62C20,-62 144.27,-62 144.27,-62 150.27,-62 156.27,-68 156.27,-74 156.27,-74 156.27,-139 156.27,-139 156.27,-145 150.27,-151 144.27,-151 144.27,-151 20,-151 20,-151 14,-151 8,-145 8,-139 8,-139 8,-74 8,-74 8,-68 14,-62 20,-62"/>
<text xml:space="preserve" text-anchor="middle" x="82.13" y="-129.9" font-family="Arial" font-size="18.00">premise</text>
</g>
<!-- N4 -->
<g id="node1" class="node">
<title>N4</title>
<path fill="#d9d2e9" stroke="black" d="M627.31,-86.6C627.31,-86.6 503.29,-86.6 503.29,-86.6 497.29,-86.6 491.29,-80.6 491.29,-74.6 491.29,-74.6 491.29,-55.4 491.29,-55.4 491.29,-49.4 497.29,-43.4 503.29,-43.4 503.29,-43.4 627.31,-43.4 627.31,-43.4 633.31,-43.4 639.31,-49.4 639.31,-55.4 639.31,-55.4 639.31,-74.6 639.31,-74.6 639.31,-80.6 633.31,-86.6 627.31,-86.6"/>
<text xml:space="preserve" text-anchor="middle" x="565.3" y="-73.5" font-family="Arial" font-size="10.00">Method</text>
<text xml:space="preserve" text-anchor="middle" x="565.3" y="-61.5" font-family="Arial" font-size="10.00">Dietary exposure and reference</text>
<text xml:space="preserve" text-anchor="middle" x="565.3" y="-49.5" font-family="Arial" font-size="10.00">dose</text>
</g>
<!-- N5 -->
<g id="node4" class="node">
<title>N5</title>
<path fill="#eeeeee" stroke="black" d="M858.58,-86.6C858.58,-86.6 748.81,-86.6 748.81,-86.6 742.81,-86.6 736.81,-80.6 736.81,-74.6 736.81,-74.6 736.81,-55.4 736.81,-55.4 736.81,-49.4 742.81,-43.4 748.81,-43.4 748.81,-43.4 858.58,-43.4 858.58,-43.4 864.58,-43.4 870.58,-49.4 870.58,-55.4 870.58,-55.4 870.58,-74.6 870.58,-74.6 870.58,-80.6 864.58,-86.6 858.58,-86.6"/>
<text xml:space="preserve" text-anchor="middle" x="803.7" y="-73.5" font-family="Arial" font-size="10.00">Conclusion</text>
<text xml:space="preserve" text-anchor="middle" x="803.7" y="-61.5" font-family="Arial" font-size="10.00">Reasonable&#45;certainty safety</text>
<text xml:space="preserve" text-anchor="middle" x="803.7" y="-49.5" font-family="Arial" font-size="10.00">conclusion</text>
</g>
<!-- N4&#45;&gt;N5 -->
<g id="edge4" class="edge">
<title>N4&#45;&gt;N5</title>
<path fill="none" stroke="#555555" d="M639.8,-65C667.93,-65 700.01,-65 728.23,-65"/>
<polygon fill="#555555" stroke="#555555" points="727.95,-67.45 734.95,-65 727.95,-62.55 727.95,-67.45"/>
<text xml:space="preserve" text-anchor="middle" x="688.06" y="-77.45" font-family="Arial" font-size="9.00">supports safety</text>
<text xml:space="preserve" text-anchor="middle" x="688.06" y="-66.95" font-family="Arial" font-size="9.00">conclusion</text>
</g>
<!-- N2 -->
<g id="node2" class="node">
<title>N2</title>
<path fill="#eeeeee" stroke="black" d="M373.54,-113.6C373.54,-113.6 263.02,-113.6 263.02,-113.6 257.02,-113.6 251.02,-107.6 251.02,-101.6 251.02,-101.6 251.02,-82.4 251.02,-82.4 251.02,-76.4 257.02,-70.4 263.02,-70.4 263.02,-70.4 373.54,-70.4 373.54,-70.4 379.54,-70.4 385.54,-76.4 385.54,-82.4 385.54,-82.4 385.54,-101.6 385.54,-101.6 385.54,-107.6 379.54,-113.6 373.54,-113.6"/>
<text xml:space="preserve" text-anchor="middle" x="318.28" y="-100.5" font-family="Arial" font-size="10.00">Data</text>
<text xml:space="preserve" text-anchor="middle" x="318.28" y="-88.5" font-family="Arial" font-size="10.00">Residue trials and analytical</text>
<text xml:space="preserve" text-anchor="middle" x="318.28" y="-76.5" font-family="Arial" font-size="10.00">method</text>
</g>
<!-- N2&#45;&gt;N4 -->
<g id="edge2" class="edge">
<title>N2&#45;&gt;N4</title>
<path fill="none" stroke="#555555" d="M385.91,-84.66C415.83,-81.36 451.41,-77.44 482.89,-73.97"/>
<polygon fill="#555555" stroke="#555555" points="483.03,-76.42 489.72,-73.22 482.49,-71.55 483.03,-76.42"/>
<text xml:space="preserve" text-anchor="middle" x="438.42" y="-94.95" font-family="Arial" font-size="9.00">feeds exposure</text>
<text xml:space="preserve" text-anchor="middle" x="438.42" y="-84.45" font-family="Arial" font-size="9.00">assessment</text>
</g>
<!-- N3 -->
<g id="node3" class="node">
<title>N3</title>
<path fill="#eeeeee" stroke="black" d="M349.91,-52C349.91,-52 286.64,-52 286.64,-52 280.64,-52 274.64,-46 274.64,-40 274.64,-40 274.64,-28 274.64,-28 274.64,-22 280.64,-16 286.64,-16 286.64,-16 349.91,-16 349.91,-16 355.91,-16 361.91,-22 361.91,-28 361.91,-28 361.91,-40 361.91,-40 361.91,-46 355.91,-52 349.91,-52"/>
<text xml:space="preserve" text-anchor="middle" x="318.28" y="-36.5" font-family="Arial" font-size="10.00">Data</text>
<text xml:space="preserve" text-anchor="middle" x="318.28" y="-24.5" font-family="Arial" font-size="10.00">Toxicology profile</text>
</g>
<!-- N3&#45;&gt;N4 -->
<g id="edge3" class="edge">
<title>N3&#45;&gt;N4</title>
<path fill="none" stroke="#555555" d="M362.18,-37.76C393.12,-40.65 435.86,-44.98 473.29,-50 476.33,-50.41 479.42,-50.84 482.53,-51.29"/>
<polygon fill="#555555" stroke="#555555" points="482.06,-53.69 489.34,-52.29 482.78,-48.84 482.06,-53.69"/>
<text xml:space="preserve" text-anchor="middle" x="438.42" y="-62.45" font-family="Arial" font-size="9.00">sets toxicological</text>
<text xml:space="preserve" text-anchor="middle" x="438.42" y="-51.95" font-family="Arial" font-size="9.00">benchmark</text>
</g>
<!-- N1 -->
<g id="node5" class="node">
<title>N1</title>
<path fill="#eeeeee" stroke="black" d="M136.27,-113.6C136.27,-113.6 28,-113.6 28,-113.6 22,-113.6 16,-107.6 16,-101.6 16,-101.6 16,-82.4 16,-82.4 16,-76.4 22,-70.4 28,-70.4 28,-70.4 136.27,-70.4 136.27,-70.4 142.27,-70.4 148.27,-76.4 148.27,-82.4 148.27,-82.4 148.27,-101.6 148.27,-101.6 148.27,-107.6 142.27,-113.6 136.27,-113.6"/>
<text xml:space="preserve" text-anchor="middle" x="82.13" y="-100.5" font-family="Arial" font-size="10.00">Scope</text>
<text xml:space="preserve" text-anchor="middle" x="82.13" y="-88.5" font-family="Arial" font-size="10.00">Proposed pesticide use and</text>
<text xml:space="preserve" text-anchor="middle" x="82.13" y="-76.5" font-family="Arial" font-size="10.00">commodities</text>
</g>
<!-- N1&#45;&gt;N2 -->
<g id="edge1" class="edge">
<title>N1&#45;&gt;N2</title>
<path fill="none" stroke="#555555" d="M148.67,-92C177.73,-92 212.08,-92 242.18,-92"/>
<polygon fill="#555555" stroke="#555555" points="242.03,-94.45 249.03,-92 242.03,-89.55 242.03,-94.45"/>
<text xml:space="preserve" text-anchor="middle" x="199.64" y="-104.45" font-family="Arial" font-size="9.00">requires residue</text>
<text xml:space="preserve" text-anchor="middle" x="199.64" y="-93.95" font-family="Arial" font-size="9.00">evidence</text>
</g>
</g>
</svg>
