<?xml version="1.0" encoding="UTF-8" standalone="no"?>
<!DOCTYPE svg PUBLIC "-//W3C//DTD SVG 1.1//EN"
 "http://www.w3.org/Graphics/SVG/1.1/DTD/svg11.dtd">
<!-- Generated by graphviz version 13.1.2 (20250808.2320)
 -->
<!-- Title: AgencyReasoningGraph Pages: 1 -->
<svg width="1134pt" height="349pt"
 viewBox="0.00 0.00 1134.00 349.00" xmlns="http://www.w3.org/2000/svg" xmlns:xlink="http://www.w3.org/1999/xlink">
<g id="graph0" class="graph" transform="scale(1 1) rotate(0) translate(4 345)">
<title>AgencyReasoningGraph</title>
<polygon fill="white" stroke="none" points="-4,4 -4,-345 1130.1,-345 1130.1,4 -4,4"/>
<text xml:space="preserve" text-anchor="middle" x="563.05" y="-319.9" font-family="Arial" font-size="18.00">FCC&#45;2026&#45;2708&#45;0001: Agency Reasoning Graph</text>
<g id="clust1" class="cluster">
<title>cluster_objective</title>
<path fill="none" stroke="#b6d7a8" d="M20,-215C20,-215 151.77,-215 151.77,-215 157.77,-215 163.77,-221 163.77,-227 163.77,-227 163.77,-292 163.77,-292 163.77,-298 157.77,-304 151.77,-304 151.77,-304 20,-304 20,-304 14,-304 8,-298 8,-292 8,-292 8,-227 8,-227 8,-221 14,-215 20,-215"/>
<text xml:space="preserve" text-anchor="middle" x="85.88" y="-282.9" font-family="Arial" font-size="18.00">objective</text>
</g>
<g id="clust2" class="cluster">
<title>cluster_diagnostic_gap</title>
<path fill="none" stroke="#cc0000" stroke-dasharray="5,2" d="M740.06,-8C740.06,-8 877.08,-8 877.08,-8 883.08,-8 889.08,-14 889.08,-20 889.08,-20 889.08,-139 889.08,-139 889.08,-145 883.08,-151 877.08,-151 877.08,-151 740.06,-151 740.06,-151 734.06,-151 728.06,-145 728.06,-139 728.06,-139 728.06,-20 728.06,-20 728.06,-14 734.06,-8 740.06,-8"/>
<text xml:space="preserve" text-anchor="middle" x="808.57" y="-129.9" font-family="Arial" font-size="18.00">diagnostic_gaps</text>
</g>
<g id="clust3" class="cluster">
<title>cluster_alternatives</title>
<path fill="none" stroke="#999999" d="M519.67,-118C519.67,-118 664.94,-118 664.94,-118 670.94,-118 676.94,-124 676.94,-130 676.94,-130 676.94,-195 676.94,-195 676.94,-201 670.94,-207 664.94,-207 664.94,-207 519.67,-207 519.67,-207 513.67,-207 507.67,-201 507.67,-195 507.67,-195 507.67,-130 507.67,-130 507.67,-124 513.67,-118 519.67,-118"/>
<text xml:space="preserve" text-anchor="middle" x="592.3" y="-185.9" font-family="Arial" font-size="18.00">alternatives</text>
</g>
<g id="clust4" class="cluster">
<title>cluster_conclusion</title>
<path fill="none" stroke="#999999" d="M956.33,-62C956.33,-62 1106.1,-62 1106.1,-62 1112.1,-62 1118.1,-68 1118.1,-74 1118.1,-74 1118.1,-139 1118.1,-139 1118.1,-145 1112.1,-151 1106.1,-151 1106.1,-151 956.33,-151 956.33,-151 950.33,-151 944.33,-145 944.33,-139 944.33,-139 944.33,-74 944.33,-74 944.33,-68 950.33,-62 956.33,-62"/>
<text xml:space="preserve" text-anchor="middle" x="1031.22" y="-129.9" font-family="Arial" font-size="18.00">conclusion</text>
</g>
<g id="clust5" class="cluster">
<title>cluster_method</title>
<path fill="none" stroke="#999999" d="M744.19,-159C744.19,-159 872.96,-159 872.96,-159 878.96,-159 884.96,-165 884.96,-171 884.96,-171 884.96,-236 884.96,-236 884.96,-242 878.96,-248 872.96,-248 872.96,-248 744.19,-248 744.19,-248 738.19,-248 732.19,-242 732.19,-236 732.19,-236 732.19,-171 732.19,-171 732.19,-165 738.19,-159 744.19,-159"/>
<text xml:space="preserve" text-anchor="middle" x="808.57" y="-226.9" font-family="Arial" font-size="18.00">method</text>
</g>
<g id="clust6" class="cluster">
<title>cluster_problem</title>
<path fill="none" stroke="#999999" d="M234.77,-215C234.77,-215 390.54,-215 390.54,-215 396.54,-215 402.54,-221 402.54,-227 402.54,-227 402.54,-292 402.54,-292 402.54,-298 396.54,-304 390.54,-304 390.54,-304 234.77,-304 234.77,-304 228.77,-304 222.77,-298 222.77,-292 222.77,-292 222.77,-227 222.77,-227 222.77,-221 228.77,-215 234.77,-215"/>
<text xml:space="preserve" text-anchor="middle" x="312.66" y="-282.9" font-family="Arial" font-size="18.00">problem</text>
</g>
<g id="clust7" class="cluster">
<title>cluster_record_basis</title>
<path fill="none" stroke="#999999" d="M519.29,-215C519.29,-215 665.31,-215 665.31,-215 671.31,-215 677.31,-221 677.31,-227 677.31,-227 677.31,-292 677.31,-292 677.31,-298 671.31,-304 665.31,-304 665.31,-304 519.29,-304 519.29,-304 513.29,-304 507.29,-298 507.29,-292 507.29,-292 507.29,-227 507.29,-227 507.29,-221 513.29,-215 519.29,-215"/>
<text xml:space="preserve" text-anchor="middle" x="592.3" y="-282.9" font-family="Arial" font-size="18.00">record_basis</text>
</g>
<!-- objective -->
<g id="node1" class="node">
<title>objective</title>
<path fill="#fff2cc" stroke="black" d="M143.77,-266.6C143.77,-266.6 28,-266.6 28,-266.6 22,-266.6 16,-260.6 16,-254.6 16,-254.6 16,-235.4 16,-235.4 16,-229.4 22,-223.4 28,-223.4 28,-223.4 143.77,-223.4 143.77,-223.4 149.77,-223.4 155.77,-229.4 155.77,-235.4 155.77,-235.4 155.77,-254.6 155.77,-254.6 155.77,-260.6 149.77,-266.6 143.77,-266.6"/>
<text xml:space="preserve" text-anchor="middle" x="85.88" y="-253.5" font-family="Arial" font-size="10.00">Agency Claim</text>
<text xml:space="preserve" text-anchor="middle" x="85.88" y="-241.5" font-family="Arial" font-size="10.00">Improve NG911 reliability and</text>
<text xml:space="preserve" text-anchor="middle" x="85.88" y="-229.5" font-family="Arial" font-size="10.00">accessibility</text>
</g>
<!-- problem -->
<g id="node7" class="node">
<title>problem</title>
<path fill="#eeeeee" stroke="black" d="M382.54,-266.6C382.54,-266.6 242.77,-266.6 242.77,-266.6 236.77,-266.6 230.77,-260.6 230.77,-254.6 230.77,-254.6 230.77,-235.4 230.77,-235.4 230.77,-229.4 236.77,-223.4 242.77,-223.4 242.77,-223.4 382.54,-223.4 382.54,-223.4 388.54,-223.4 394.54,-229.4 394.54,-235.4 394.54,-235.4 394.54,-254.6 394.54,-254.6 394.54,-260.6 388.54,-266.6 382.54,-266.6"/>
<text xml:space="preserve" text-anchor="middle" x="312.66" y="-253.5" font-family="Arial" font-size="10.00">Problem Definition</text>
<text xml:space="preserve" text-anchor="middle" x="312.66" y="-241.5" font-family="Arial" font-size="10.00">Interoperability and DVC pathways</text>
<text xml:space="preserve" text-anchor="middle" x="312.66" y="-229.5" font-family="Arial" font-size="10.00">are not yet uniform</text>
</g>
<!-- objective&#45;&gt;problem -->
<g id="edge1" class="edge">
<title>objective&#45;&gt;problem</title>
<path fill="none" stroke="#555555" d="M156.16,-245C176.97,-245 200.12,-245 222.05,-245"/>
<polygon fill="#555555" stroke="#555555" points="221.88,-247.45 228.88,-245 221.88,-242.55 221.88,-247.45"/>
<text xml:space="preserve" text-anchor="middle" x="193.27" y="-246.95" font-family="Arial" font-size="9.00">motivates</text>
</g>
<!-- gap_dvc -->
<g id="node2" class="node">
<title>gap_dvc</title>
<path fill="#f4cccc" stroke="black" d="M864.21,-113.6C864.21,-113.6 752.94,-113.6 752.94,-113.6 746.94,-113.6 740.94,-107.6 740.94,-101.6 740.94,-101.6 740.94,-82.4 740.94,-82.4 740.94,-76.4 746.94,-70.4 752.94,-70.4 752.94,-70.4 864.21,-70.4 864.21,-70.4 870.21,-70.4 876.21,-76.4 876.21,-82.4 876.21,-82.4 876.21,-101.6 876.21,-101.6 876.21,-107.6 870.21,-113.6 864.21,-113.6"/>
<text xml:space="preserve" text-anchor="middle" x="808.57" y="-100.5" font-family="Arial" font-size="10.00">Record Gap</text>
<text xml:space="preserve" text-anchor="middle" x="808.57" y="-88.5" font-family="Arial" font-size="10.00">DVC readiness, routing, and</text>
<text xml:space="preserve" text-anchor="middle" x="808.57" y="-76.5" font-family="Arial" font-size="10.00">staffing are unresolved</text>
</g>
<!-- conclusion -->
<g id="node5" class="node">
<title>conclusion</title>
<path fill="#fff2cc" stroke="black" d="M1098.1,-113.6C1098.1,-113.6 964.33,-113.6 964.33,-113.6 958.33,-113.6 952.33,-107.6 952.33,-101.6 952.33,-101.6 952.33,-82.4 952.33,-82.4 952.33,-76.4 958.33,-70.4 964.33,-70.4 964.33,-70.4 1098.1,-70.4 1098.1,-70.4 1104.1,-70.4 1110.1,-76.4 1110.1,-82.4 1110.1,-82.4 1110.1,-101.6 1110.1,-101.6 1110.1,-107.6 1104.1,-113.6 1098.1,-113.6"/>
<text xml:space="preserve" text-anchor="middle" x="1031.22" y="-100.5" font-family="Arial" font-size="10.00">Agency Claim</text>
<text xml:space="preserve" text-anchor="middle" x="1031.22" y="-88.5" font-family="Arial" font-size="10.00">The FCC is building a record</text>
<text xml:space="preserve" text-anchor="middle" x="1031.22" y="-76.5" font-family="Arial" font-size="10.00">before finalizing DVC deployment</text>
</g>
<!-- gap_dvc&#45;&gt;conclusion -->
<g id="edge6" class="edge">
<title>gap_dvc&#45;&gt;conclusion</title>
<path fill="none" stroke="#555555" d="M876.67,-92C897.81,-92 921.46,-92 943.74,-92"/>
<polygon fill="#555555" stroke="#555555" points="943.69,-94.45 950.69,-92 943.69,-89.55 943.69,-94.45"/>
<text xml:space="preserve" text-anchor="middle" x="916.71" y="-93.95" font-family="Arial" font-size="9.00">qualifies</text>
</g>
<!-- gap_costs -->
<g id="node3" class="node">
<title>gap_costs</title>
<path fill="#f4cccc" stroke="black" d="M869.08,-52C869.08,-52 748.06,-52 748.06,-52 742.06,-52 736.06,-46 736.06,-40 736.06,-40 736.06,-28 736.06,-28 736.06,-22 742.06,-16 748.06,-16 748.06,-16 869.08,-16 869.08,-16 875.08,-16 881.08,-22 881.08,-28 881.08,-28 881.08,-40 881.08,-40 881.08,-46 875.08,-52 869.08,-52"/>
<text xml:space="preserve" text-anchor="middle" x="808.57" y="-36.5" font-family="Arial" font-size="10.00">Record Gap</text>
<text xml:space="preserve" text-anchor="middle" x="808.57" y="-24.5" font-family="Arial" font-size="10.00">Costs and burden remain open</text>
</g>
<!-- gap_costs&#45;&gt;conclusion -->
<g id="edge7" class="edge">
<title>gap_costs&#45;&gt;conclusion</title>
<path fill="none" stroke="#555555" d="M879.69,-52.43C900.05,-57.78 922.53,-63.69 943.77,-69.28"/>
<polygon fill="#555555" stroke="#555555" points="942.99,-71.6 950.38,-71.02 944.24,-66.87 942.99,-71.6"/>
<text xml:space="preserve" text-anchor="middle" x="916.71" y="-68.42" font-family="Arial" font-size="9.00">qualifies</text>
</g>
<!-- alternatives -->
<g id="node4" class="node">
<title>alternatives</title>
<path fill="#eeeeee" stroke="black" d="M656.94,-169.6C656.94,-169.6 527.67,-169.6 527.67,-169.6 521.67,-169.6 515.67,-163.6 515.67,-157.6 515.67,-157.6 515.67,-138.4 515.67,-138.4 515.67,-132.4 521.67,-126.4 527.67,-126.4 527.67,-126.4 656.94,-126.4 656.94,-126.4 662.94,-126.4 668.94,-132.4 668.94,-138.4 668.94,-138.4 668.94,-157.6 668.94,-157.6 668.94,-163.6 662.94,-169.6 656.94,-169.6"/>
<text xml:space="preserve" text-anchor="middle" x="592.3" y="-156.5" font-family="Arial" font-size="10.00">Alternatives</text>
<text xml:space="preserve" text-anchor="middle" x="592.3" y="-144.5" font-family="Arial" font-size="10.00">The FCC is still soliciting design</text>
<text xml:space="preserve" text-anchor="middle" x="592.3" y="-132.5" font-family="Arial" font-size="10.00">alternatives</text>
</g>
<!-- method -->
<g id="node6" class="node">
<title>method</title>
<path fill="#eeeeee" stroke="black" d="M864.96,-210.6C864.96,-210.6 752.19,-210.6 752.19,-210.6 746.19,-210.6 740.19,-204.6 740.19,-198.6 740.19,-198.6 740.19,-179.4 740.19,-179.4 740.19,-173.4 746.19,-167.4 752.19,-167.4 752.19,-167.4 864.96,-167.4 864.96,-167.4 870.96,-167.4 876.96,-173.4 876.96,-179.4 876.96,-179.4 876.96,-198.6 876.96,-198.6 876.96,-204.6 870.96,-210.6 864.96,-210.6"/>
<text xml:space="preserve" text-anchor="middle" x="808.57" y="-197.5" font-family="Arial" font-size="10.00">Analytical Method</text>
<text xml:space="preserve" text-anchor="middle" x="808.57" y="-185.5" font-family="Arial" font-size="10.00">Three&#45;year testing plus a</text>
<text xml:space="preserve" text-anchor="middle" x="808.57" y="-173.5" font-family="Arial" font-size="10.00">successful&#45;transfer definition</text>
</g>
<!-- alternatives&#45;&gt;method -->
<g id="edge5" class="edge">
<title>alternatives&#45;&gt;method</title>
<path fill="none" stroke="#555555" d="M669.15,-162.51C689.46,-166.4 711.42,-170.6 731.74,-174.49"/>
<polygon fill="#555555" stroke="#555555" points="731.21,-176.88 738.54,-175.79 732.13,-172.07 731.21,-176.88"/>
<text xml:space="preserve" text-anchor="middle" x="702.69" y="-172.9" font-family="Arial" font-size="9.00">refines</text>
</g>
<!-- method&#45;&gt;conclusion -->
<g id="edge4" class="edge">
<title>method&#45;&gt;conclusion</title>
<path fill="none" stroke="#555555" d="M861.37,-166.99C870.61,-163.02 880.14,-158.91 889.08,-155 917.05,-142.78 948.04,-128.97 973.83,-117.41"/>
<polygon fill="#555555" stroke="#555555" points="974.55,-119.78 979.93,-114.68 972.54,-115.31 974.55,-119.78"/>
<text xml:space="preserve" text-anchor="middle" x="916.71" y="-151.92" font-family="Arial" font-size="9.00">supports</text>
</g>
<!-- record -->
<g id="node8" class="node">
<title>record</title>
<path fill="#eeeeee" stroke="black" d="M657.31,-266.6C657.31,-266.6 527.29,-266.6 527.29,-266.6 521.29,-266.6 515.29,-260.6 515.29,-254.6 515.29,-254.6 515.29,-235.4 515.29,-235.4 515.29,-229.4 521.29,-223.4 527.29,-223.4 527.29,-223.4 657.31,-223.4 657.31,-223.4 663.31,-223.4 669.31,-229.4 669.31,-235.4 669.31,-235.4 669.31,-254.6 669.31,-254.6 669.31,-260.6 663.31,-266.6 657.31,-266.6"/>
<text xml:space="preserve" text-anchor="middle" x="592.3" y="-253.5" font-family="Arial" font-size="10.00">Record Basis</text>
<text xml:space="preserve" text-anchor="middle" x="592.3" y="-241.5" font-family="Arial" font-size="10.00">Record support exists for testing</text>
<text xml:space="preserve" text-anchor="middle" x="592.3" y="-229.5" font-family="Arial" font-size="10.00">and accessibility inquiry</text>
</g>
<!-- problem&#45;&gt;record -->
<g id="edge2" class="edge">
<title>problem&#45;&gt;record</title>
<path fill="none" stroke="#555555" d="M394.71,-245C429.83,-245 470.95,-245 506.48,-245"/>
<polygon fill="#555555" stroke="#555555" points="506.4,-247.45 513.4,-245 506.4,-242.55 506.4,-247.45"/>
<text xml:space="preserve" text-anchor="middle" x="454.92" y="-257.45" font-family="Arial" font-size="9.00">is partially supported</text>
<text xml:space="preserve" text-anchor="middle" x="454.92" y="-246.95" font-family="Arial" font-size="9.00">by</text>
</g>
<!-- record&#45;&gt;method -->
<g id="edge3" class="edge">
<title>record&#45;&gt;method</title>
<path fill="none" stroke="#555555" d="M669.75,-225.02C689.82,-219.77 711.46,-214.12 731.51,-208.88"/>
<polygon fill="#555555" stroke="#555555" points="732.08,-211.26 738.23,-207.12 730.84,-206.52 732.08,-211.26"/>
<text xml:space="preserve" text-anchor="middle" x="702.69" y="-222.3" font-family="Arial" font-size="9.00">justifies</text>
</g>
</g>
</svg>
