<?xml version="1.0" encoding="UTF-8" standalone="no"?>
<!DOCTYPE svg PUBLIC "-//W3C//DTD SVG 1.1//EN"
 "http://www.w3.org/Graphics/SVG/1.1/DTD/svg11.dtd">
<!-- Generated by graphviz version 13.1.2 (20250808.2320)
 -->
<!-- Title: AgencyReasoningGraph Pages: 1 -->
<svg width="1393pt" height="403pt"
 viewBox="0.00 0.00 1393.00 403.00" xmlns="http://www.w3.org/2000/svg" xmlns:xlink="http://www.w3.org/1999/xlink">
<g id="graph0" class="graph" transform="scale(1 1) rotate(0) translate(4 399)">
<title>AgencyReasoningGraph</title>
<polygon fill="white" stroke="none" points="-4,4 -4,-399 1389.1,-399 1389.1,4 -4,4"/>
<text xml:space="preserve" text-anchor="middle" x="692.55" y="-373.9" font-family="Arial" font-size="18.00">FDIC&#45;2026&#45;1191&#45;0001: Agency Reasoning Graph</text>
<g id="clust1" class="cluster">
<title>cluster_regulatory_objective</title>
<path fill="none" stroke="#b6d7a8" d="M34.99,-14C34.99,-14 166.76,-14 166.76,-14 172.76,-14 178.76,-20 178.76,-26 178.76,-26 178.76,-91 178.76,-91 178.76,-97 172.76,-103 166.76,-103 166.76,-103 34.99,-103 34.99,-103 28.99,-103 22.99,-97 22.99,-91 22.99,-91 22.99,-26 22.99,-26 22.99,-20 28.99,-14 34.99,-14"/>
<text xml:space="preserve" text-anchor="middle" x="100.88" y="-81.9" font-family="Arial" font-size="18.00">objective</text>
</g>
<g id="clust2" class="cluster">
<title>cluster_problem_definition</title>
<path fill="none" stroke="#b6d7a8" d="M299.51,-8C299.51,-8 435.51,-8 435.51,-8 441.51,-8 447.51,-14 447.51,-20 447.51,-20 447.51,-97 447.51,-97 447.51,-103 441.51,-109 435.51,-109 435.51,-109 299.51,-109 299.51,-109 293.51,-109 287.51,-103 287.51,-97 287.51,-97 287.51,-20 287.51,-20 287.51,-14 293.51,-8 299.51,-8"/>
<text xml:space="preserve" text-anchor="middle" x="367.51" y="-87.9" font-family="Arial" font-size="18.00">problem_definition</text>
</g>
<g id="clust3" class="cluster">
<title>cluster_data_used</title>
<path fill="none" stroke="#9fc5e8" d="M548.52,-14C548.52,-14 683.29,-14 683.29,-14 689.29,-14 695.29,-20 695.29,-26 695.29,-26 695.29,-91 695.29,-91 695.29,-97 689.29,-103 683.29,-103 683.29,-103 548.52,-103 548.52,-103 542.52,-103 536.52,-97 536.52,-91 536.52,-91 536.52,-26 536.52,-26 536.52,-20 542.52,-14 548.52,-14"/>
<text xml:space="preserve" text-anchor="middle" x="615.9" y="-81.9" font-family="Arial" font-size="18.00">data_used</text>
</g>
<g id="clust4" class="cluster">
<title>cluster_analytical_method</title>
<path fill="none" stroke="#b4a7d6" d="M762.54,-14C762.54,-14 1365.1,-14 1365.1,-14 1371.1,-14 1377.1,-20 1377.1,-26 1377.1,-26 1377.1,-91 1377.1,-91 1377.1,-97 1371.1,-103 1365.1,-103 1365.1,-103 762.54,-103 762.54,-103 756.54,-103 750.54,-97 750.54,-91 750.54,-91 750.54,-26 750.54,-26 750.54,-20 756.54,-14 762.54,-14"/>
<text xml:space="preserve" text-anchor="middle" x="1063.82" y="-81.9" font-family="Arial" font-size="18.00">analytical_method</text>
</g>
<g id="clust5" class="cluster">
<title>cluster_alternatives_considered</title>
<path fill="none" stroke="#f6b26b" d="M12,-269C12,-269 190.75,-269 190.75,-269 196.75,-269 202.75,-275 202.75,-281 202.75,-281 202.75,-346 202.75,-346 202.75,-352 196.75,-358 190.75,-358 190.75,-358 12,-358 12,-358 6,-358 0,-352 0,-346 0,-346 0,-281 0,-281 0,-275 6,-269 12,-269"/>
<text xml:space="preserve" text-anchor="middle" x="101.38" y="-336.9" font-family="Arial" font-size="18.00">alternatives_considered</text>
</g>
<g id="clust6" class="cluster">
<title>cluster_agency_conclusion</title>
<path fill="none" stroke="#6fa8dc" d="M285.75,-172C285.75,-172 448.27,-172 448.27,-172 454.27,-172 460.27,-178 460.27,-184 460.27,-184 460.27,-249 460.27,-249 460.27,-255 454.27,-261 448.27,-261 448.27,-261 285.75,-261 285.75,-261 279.75,-261 273.75,-255 273.75,-249 273.75,-249 273.75,-184 273.75,-184 273.75,-178 279.75,-172 285.75,-172"/>
<text xml:space="preserve" text-anchor="middle" x="367.01" y="-239.9" font-family="Arial" font-size="18.00">agency_conclusion</text>
</g>
<g id="clust7" class="cluster">
<title>cluster_diagnostic_gap</title>
<path fill="none" stroke="#cc0000" stroke-dasharray="5,2" d="M21.49,-111C21.49,-111 180.26,-111 180.26,-111 186.26,-111 192.26,-117 192.26,-123 192.26,-123 192.26,-249 192.26,-249 192.26,-255 186.26,-261 180.26,-261 180.26,-261 21.49,-261 21.49,-261 15.49,-261 9.49,-255 9.49,-249 9.49,-249 9.49,-123 9.49,-123 9.49,-117 15.49,-111 21.49,-111"/>
<text xml:space="preserve" text-anchor="middle" x="100.88" y="-239.9" font-family="Arial" font-size="18.00">diagnostic_gaps</text>
</g>
<!-- objective -->
<g id="node1" class="node">
<title>objective</title>
<path fill="#fff2cc" stroke="black" d="M158.76,-65.6C158.76,-65.6 42.99,-65.6 42.99,-65.6 36.99,-65.6 30.99,-59.6 30.99,-53.6 30.99,-53.6 30.99,-34.4 30.99,-34.4 30.99,-28.4 36.99,-22.4 42.99,-22.4 42.99,-22.4 158.76,-22.4 158.76,-22.4 164.76,-22.4 170.76,-28.4 170.76,-34.4 170.76,-34.4 170.76,-53.6 170.76,-53.6 170.76,-59.6 164.76,-65.6 158.76,-65.6"/>
<text xml:space="preserve" text-anchor="middle" x="100.88" y="-52.5" font-family="Arial" font-size="10.00">Agency Claim</text>
<text xml:space="preserve" text-anchor="middle" x="100.88" y="-40.5" font-family="Arial" font-size="10.00">Modernize assessment</text>
<text xml:space="preserve" text-anchor="middle" x="100.88" y="-28.5" font-family="Arial" font-size="10.00">classifications and incentives</text>
</g>
<!-- problem -->
<g id="node2" class="node">
<title>problem</title>
<path fill="#fff2cc" stroke="black" d="M418.89,-71.6C418.89,-71.6 315.12,-71.6 315.12,-71.6 309.12,-71.6 303.12,-65.6 303.12,-59.6 303.12,-59.6 303.12,-28.4 303.12,-28.4 303.12,-22.4 309.12,-16.4 315.12,-16.4 315.12,-16.4 418.89,-16.4 418.89,-16.4 424.89,-16.4 430.89,-22.4 430.89,-28.4 430.89,-28.4 430.89,-59.6 430.89,-59.6 430.89,-65.6 424.89,-71.6 418.89,-71.6"/>
<text xml:space="preserve" text-anchor="middle" x="367.01" y="-58.5" font-family="Arial" font-size="10.00">Agency Claim</text>
<text xml:space="preserve" text-anchor="middle" x="367.01" y="-46.5" font-family="Arial" font-size="10.00">Static thresholds no longer</text>
<text xml:space="preserve" text-anchor="middle" x="367.01" y="-34.5" font-family="Arial" font-size="10.00">reflect inflation and burden</text>
<text xml:space="preserve" text-anchor="middle" x="367.01" y="-22.5" font-family="Arial" font-size="10.00">changes</text>
</g>
<!-- objective&#45;&gt;problem -->
<g id="edge1" class="edge">
<title>objective&#45;&gt;problem</title>
<path fill="none" stroke="#555555" d="M170.93,-44C209.03,-44 256.27,-44 294.72,-44"/>
<polygon fill="#555555" stroke="#555555" points="294.27,-46.45 301.27,-44 294.27,-41.55 294.27,-46.45"/>
<text xml:space="preserve" text-anchor="middle" x="238.25" y="-45.95" font-family="Arial" font-size="9.00">responds_to</text>
</g>
<!-- data_snapshot -->
<g id="node3" class="node">
<title>data_snapshot</title>
<path fill="#fff2cc" stroke="black" d="M675.29,-65.6C675.29,-65.6 556.52,-65.6 556.52,-65.6 550.52,-65.6 544.52,-59.6 544.52,-53.6 544.52,-53.6 544.52,-34.4 544.52,-34.4 544.52,-28.4 550.52,-22.4 556.52,-22.4 556.52,-22.4 675.29,-22.4 675.29,-22.4 681.29,-22.4 687.29,-28.4 687.29,-34.4 687.29,-34.4 687.29,-53.6 687.29,-53.6 687.29,-59.6 681.29,-65.6 675.29,-65.6"/>
<text xml:space="preserve" text-anchor="middle" x="615.9" y="-52.5" font-family="Arial" font-size="10.00">Agency Claim</text>
<text xml:space="preserve" text-anchor="middle" x="615.9" y="-40.5" font-family="Arial" font-size="10.00">2025 Call Report and</text>
<text xml:space="preserve" text-anchor="middle" x="615.9" y="-28.5" font-family="Arial" font-size="10.00">assessment&#45;impact estimates</text>
</g>
<!-- problem&#45;&gt;data_snapshot -->
<g id="edge2" class="edge">
<title>problem&#45;&gt;data_snapshot</title>
<path fill="none" stroke="#555555" d="M431.27,-44C463.15,-44 502.11,-44 535.93,-44"/>
<polygon fill="#555555" stroke="#555555" points="535.9,-46.45 542.9,-44 535.9,-41.55 535.9,-46.45"/>
<text xml:space="preserve" text-anchor="middle" x="498.39" y="-45.95" font-family="Arial" font-size="9.00">supported_by</text>
</g>
<!-- method_threshold -->
<g id="node4" class="node">
<title>method_threshold</title>
<path fill="#fff2cc" stroke="black" d="M896.06,-65.6C896.06,-65.6 770.54,-65.6 770.54,-65.6 764.54,-65.6 758.54,-59.6 758.54,-53.6 758.54,-53.6 758.54,-34.4 758.54,-34.4 758.54,-28.4 764.54,-22.4 770.54,-22.4 770.54,-22.4 896.06,-22.4 896.06,-22.4 902.06,-22.4 908.06,-28.4 908.06,-34.4 908.06,-34.4 908.06,-53.6 908.06,-53.6 908.06,-59.6 902.06,-65.6 896.06,-65.6"/>
<text xml:space="preserve" text-anchor="middle" x="833.3" y="-52.5" font-family="Arial" font-size="10.00">Agency Claim</text>
<text xml:space="preserve" text-anchor="middle" x="833.3" y="-40.5" font-family="Arial" font-size="10.00">Raise the threshold and index it</text>
<text xml:space="preserve" text-anchor="middle" x="833.3" y="-28.5" font-family="Arial" font-size="10.00">to CPI&#45;W every four years</text>
</g>
<!-- data_snapshot&#45;&gt;method_threshold -->
<g id="edge3" class="edge">
<title>data_snapshot&#45;&gt;method_threshold</title>
<path fill="none" stroke="#555555" d="M687.73,-44C707.56,-44 729.29,-44 749.73,-44"/>
<polygon fill="#555555" stroke="#555555" points="749.59,-46.45 756.59,-44 749.59,-41.55 749.59,-46.45"/>
<text xml:space="preserve" text-anchor="middle" x="722.91" y="-45.95" font-family="Arial" font-size="9.00">supports</text>
</g>
<!-- method_rates -->
<g id="node5" class="node">
<title>method_rates</title>
<path fill="#fff2cc" stroke="black" d="M1134.08,-65.6C1134.08,-65.6 1014.56,-65.6 1014.56,-65.6 1008.56,-65.6 1002.56,-59.6 1002.56,-53.6 1002.56,-53.6 1002.56,-34.4 1002.56,-34.4 1002.56,-28.4 1008.56,-22.4 1014.56,-22.4 1014.56,-22.4 1134.08,-22.4 1134.08,-22.4 1140.08,-22.4 1146.08,-28.4 1146.08,-34.4 1146.08,-34.4 1146.08,-53.6 1146.08,-53.6 1146.08,-59.6 1140.08,-65.6 1134.08,-65.6"/>
<text xml:space="preserve" text-anchor="middle" x="1074.32" y="-52.5" font-family="Arial" font-size="10.00">Agency Claim</text>
<text xml:space="preserve" text-anchor="middle" x="1074.32" y="-40.5" font-family="Arial" font-size="10.00">Lower initial base assessment</text>
<text xml:space="preserve" text-anchor="middle" x="1074.32" y="-28.5" font-family="Arial" font-size="10.00">rates</text>
</g>
<!-- method_threshold&#45;&gt;method_rates -->
<g id="edge4" class="edge">
<title>method_threshold&#45;&gt;method_rates</title>
<path fill="none" stroke="#555555" d="M908.29,-44C935.38,-44 966.13,-44 993.69,-44"/>
<polygon fill="#555555" stroke="#555555" points="993.62,-46.45 1000.62,-44 993.62,-41.55 993.62,-46.45"/>
<text xml:space="preserve" text-anchor="middle" x="955.31" y="-45.95" font-family="Arial" font-size="9.00">contextualizes</text>
</g>
<!-- method_rra -->
<g id="node6" class="node">
<title>method_rra</title>
<path fill="#fff2cc" stroke="black" d="M1357.1,-65.6C1357.1,-65.6 1242.08,-65.6 1242.08,-65.6 1236.08,-65.6 1230.08,-59.6 1230.08,-53.6 1230.08,-53.6 1230.08,-34.4 1230.08,-34.4 1230.08,-28.4 1236.08,-22.4 1242.08,-22.4 1242.08,-22.4 1357.1,-22.4 1357.1,-22.4 1363.1,-22.4 1369.1,-28.4 1369.1,-34.4 1369.1,-34.4 1369.1,-53.6 1369.1,-53.6 1369.1,-59.6 1363.1,-65.6 1357.1,-65.6"/>
<text xml:space="preserve" text-anchor="middle" x="1299.59" y="-52.5" font-family="Arial" font-size="10.00">Agency Claim</text>
<text xml:space="preserve" text-anchor="middle" x="1299.59" y="-40.5" font-family="Arial" font-size="10.00">Create a resolution readiness</text>
<text xml:space="preserve" text-anchor="middle" x="1299.59" y="-28.5" font-family="Arial" font-size="10.00">adjustment</text>
</g>
<!-- method_rates&#45;&gt;method_rra -->
<g id="edge5" class="edge">
<title>method_rates&#45;&gt;method_rra</title>
<path fill="none" stroke="#555555" d="M1146.58,-44C1170.44,-44 1197.14,-44 1221.43,-44"/>
<polygon fill="#555555" stroke="#555555" points="1221.4,-46.45 1228.4,-44 1221.4,-41.55 1221.4,-46.45"/>
<text xml:space="preserve" text-anchor="middle" x="1188.08" y="-45.95" font-family="Arial" font-size="9.00">paired_with</text>
</g>
<!-- alternatives -->
<g id="node7" class="node">
<title>alternatives</title>
<path fill="#fff2cc" stroke="black" d="M162.88,-320.6C162.88,-320.6 38.87,-320.6 38.87,-320.6 32.87,-320.6 26.86,-314.6 26.86,-308.6 26.86,-308.6 26.86,-289.4 26.86,-289.4 26.86,-283.4 32.86,-277.4 38.86,-277.4 38.86,-277.4 162.88,-277.4 162.88,-277.4 168.88,-277.4 174.88,-283.4 174.88,-289.4 174.88,-289.4 174.88,-308.6 174.88,-308.6 174.88,-314.6 168.88,-320.6 162.88,-320.6"/>
<text xml:space="preserve" text-anchor="middle" x="100.88" y="-307.5" font-family="Arial" font-size="10.00">Agency Claim</text>
<text xml:space="preserve" text-anchor="middle" x="100.88" y="-295.5" font-family="Arial" font-size="10.00">Alternative threshold lines were</text>
<text xml:space="preserve" text-anchor="middle" x="100.88" y="-283.5" font-family="Arial" font-size="10.00">considered</text>
</g>
<!-- conclusion -->
<g id="node8" class="node">
<title>conclusion</title>
<path fill="#fff2cc" stroke="black" d="M440.27,-223.6C440.27,-223.6 293.75,-223.6 293.75,-223.6 287.75,-223.6 281.75,-217.6 281.75,-211.6 281.75,-211.6 281.75,-192.4 281.75,-192.4 281.75,-186.4 287.75,-180.4 293.75,-180.4 293.75,-180.4 440.27,-180.4 440.27,-180.4 446.27,-180.4 452.27,-186.4 452.27,-192.4 452.27,-192.4 452.27,-211.6 452.27,-211.6 452.27,-217.6 446.27,-223.6 440.27,-223.6"/>
<text xml:space="preserve" text-anchor="middle" x="367.01" y="-210.5" font-family="Arial" font-size="10.00">Agency Claim</text>
<text xml:space="preserve" text-anchor="middle" x="367.01" y="-198.5" font-family="Arial" font-size="10.00">FDIC concludes the package should</text>
<text xml:space="preserve" text-anchor="middle" x="367.01" y="-186.5" font-family="Arial" font-size="10.00">pass cost&#45;benefit review</text>
</g>
<!-- alternatives&#45;&gt;conclusion -->
<g id="edge6" class="edge">
<title>alternatives&#45;&gt;conclusion</title>
<path fill="none" stroke="#555555" d="M168.76,-276.91C180.13,-273.02 191.8,-268.96 202.75,-265 235.93,-253.01 272.6,-238.94 302.77,-227.14"/>
<polygon fill="#555555" stroke="#555555" points="303.66,-229.42 309.28,-224.58 301.87,-224.86 303.66,-229.42"/>
<text xml:space="preserve" text-anchor="middle" x="238.25" y="-262.09" font-family="Arial" font-size="9.00">informs</text>
</g>
<!-- gap_threshold -->
<g id="node9" class="node">
<title>gap_threshold</title>
<path fill="#f4cccc" stroke="black" d="M172.26,-223.6C172.26,-223.6 29.49,-223.6 29.49,-223.6 23.49,-223.6 17.49,-217.6 17.49,-211.6 17.49,-211.6 17.49,-192.4 17.49,-192.4 17.49,-186.4 23.49,-180.4 29.49,-180.4 29.49,-180.4 172.26,-180.4 172.26,-180.4 178.26,-180.4 184.26,-186.4 184.26,-192.4 184.26,-192.4 184.26,-211.6 184.26,-211.6 184.26,-217.6 178.26,-223.6 172.26,-223.6"/>
<text xml:space="preserve" text-anchor="middle" x="100.88" y="-210.5" font-family="Arial" font-size="10.00">Record Gap</text>
<text xml:space="preserve" text-anchor="middle" x="100.88" y="-198.5" font-family="Arial" font-size="10.00">The record does not fully show why</text>
<text xml:space="preserve" text-anchor="middle" x="100.88" y="-186.5" font-family="Arial" font-size="10.00">$30 billion is the best line</text>
</g>
<!-- gap_threshold&#45;&gt;conclusion -->
<g id="edge7" class="edge">
<title>gap_threshold&#45;&gt;conclusion</title>
<path fill="none" stroke="#cc0000" d="M184.72,-202C212.82,-202 244.37,-202 273.19,-202"/>
<polygon fill="#cc0000" stroke="#cc0000" points="273.12,-204.45 280.12,-202 273.12,-199.55 273.12,-204.45"/>
<text xml:space="preserve" text-anchor="middle" x="238.25" y="-203.95" font-family="Arial" font-size="9.00" fill="#cc0000">weakens</text>
</g>
<!-- gap_rra -->
<g id="node10" class="node">
<title>gap_rra</title>
<path fill="#f4cccc" stroke="black" d="M152.38,-162.6C152.38,-162.6 49.37,-162.6 49.37,-162.6 43.37,-162.6 37.37,-156.6 37.37,-150.6 37.37,-150.6 37.37,-131.4 37.37,-131.4 37.37,-125.4 43.37,-119.4 49.37,-119.4 49.37,-119.4 152.38,-119.4 152.38,-119.4 158.38,-119.4 164.38,-125.4 164.38,-131.4 164.38,-131.4 164.38,-150.6 164.38,-150.6 164.38,-156.6 158.38,-162.6 152.38,-162.6"/>
<text xml:space="preserve" text-anchor="middle" x="100.88" y="-149.5" font-family="Arial" font-size="10.00">Record Gap</text>
<text xml:space="preserve" text-anchor="middle" x="100.88" y="-137.5" font-family="Arial" font-size="10.00">The RRA credit is not fully</text>
<text xml:space="preserve" text-anchor="middle" x="100.88" y="-125.5" font-family="Arial" font-size="10.00">quantified</text>
</g>
<!-- gap_rra&#45;&gt;conclusion -->
<g id="edge8" class="edge">
<title>gap_rra&#45;&gt;conclusion</title>
<path fill="none" stroke="#cc0000" d="M164.81,-155.53C197.29,-163.04 237.55,-172.33 273.5,-180.64"/>
<polygon fill="#cc0000" stroke="#cc0000" points="272.73,-182.97 280.1,-182.16 273.83,-178.2 272.73,-182.97"/>
<text xml:space="preserve" text-anchor="middle" x="238.25" y="-178.91" font-family="Arial" font-size="9.00" fill="#cc0000">weakens</text>
</g>
</g>
</svg>
